<?xml version="1.0" encoding="UTF-8" standalone="no"?>
<!-- Created with Inkscape (http://www.inkscape.org/) -->

<svg
   width="210mm"
   height="80mm"
   viewBox="0 0 210 80"
   version="1.1"
   id="svg907"
   inkscape:version="1.2.2 (b0a8486, 2022-12-01)"
   sodipodi:docname="slogan.svg"
   xml:space="preserve"
   xmlns:inkscape="http://www.inkscape.org/namespaces/inkscape"
   xmlns:sodipodi="http://sodipodi.sourceforge.net/DTD/sodipodi-0.dtd"
   xmlns="http://www.w3.org/2000/svg"
   xmlns:svg="http://www.w3.org/2000/svg"><sodipodi:namedview
     id="namedview909"
     pagecolor="#ffffff"
     bordercolor="#000000"
     borderopacity="0.25"
     inkscape:showpageshadow="2"
     inkscape:pageopacity="0.0"
     inkscape:pagecheckerboard="0"
     inkscape:deskcolor="#d1d1d1"
     inkscape:document-units="mm"
     showgrid="false"
     inkscape:zoom="1"
     inkscape:cx="433.5"
     inkscape:cy="0"
     inkscape:window-width="1920"
     inkscape:window-height="1011"
     inkscape:window-x="0"
     inkscape:window-y="0"
     inkscape:window-maximized="1"
     inkscape:current-layer="layer1"
     showguides="false"><inkscape:grid
       type="xygrid"
       id="grid1335"
       originx="0"
       originy="0" /></sodipodi:namedview><defs
     id="defs904"><inkscape:path-effect
       effect="bspline"
       id="path-effect1065"
       is_visible="true"
       lpeversion="1"
       weight="33.333333"
       steps="2"
       helper_size="0"
       apply_no_weight="true"
       apply_with_weight="true"
       only_selected="false" /></defs><g
     inkscape:groupmode="layer"
     id="layer4"
     inkscape:label="base" /><g
     inkscape:groupmode="layer"
     id="layer3"
     inkscape:label="arrows"
     style="display:inline"><g
       id="g6121"
       inkscape:label="arrow"
       transform="matrix(0.70661466,0,0,0.70661466,23.553213,-76.497195)"
       style="fill:#808080;fill-opacity:1;stroke:#808080;stroke-opacity:1"><path
         style="fill:#808080;fill-opacity:1;stroke:#808080;stroke-width:1;stroke-linecap:round;stroke-linejoin:round;stroke-dasharray:none;stroke-opacity:1;paint-order:fill markers stroke"
         d="m 92.75093,145.69456 c 3.363656,2.6e-4 8.90999,0 8.90999,0"
         id="path6063" /><path
         sodipodi:type="star"
         style="fill:#808080;fill-opacity:1;stroke:#808080;stroke-width:1;stroke-linecap:round;stroke-linejoin:round;stroke-dasharray:none;stroke-opacity:1;paint-order:fill markers stroke"
         id="path6117"
         inkscape:flatsided="false"
         sodipodi:sides="3"
         sodipodi:cx="104.87672"
         sodipodi:cy="148.81708"
         sodipodi:r1="2.7684898"
         sodipodi:r2="1.3842453"
         sodipodi:arg1="-1.5707963"
         sodipodi:arg2="-0.52359878"
         inkscape:rounded="0"
         inkscape:randomized="0"
         d="m 104.87672,146.04859 1.19879,2.07636 1.19879,2.07637 -2.39758,0 -2.39759,0 1.1988,-2.07636 z"
         inkscape:transform-center-x="-0.69212255"
         inkscape:transform-center-y="-1.2494422e-06"
         transform="rotate(90,105.73758,146.55548)" /></g><g
       id="g8865"
       inkscape:label="arrow"
       transform="matrix(0.70661466,0,0,0.70661466,44.810226,-76.497195)"
       style="fill:#808080;fill-opacity:1;stroke:#808080;stroke-opacity:1"><path
         style="fill:#808080;fill-opacity:1;stroke:#808080;stroke-width:1;stroke-linecap:round;stroke-linejoin:round;stroke-dasharray:none;stroke-opacity:1;paint-order:fill markers stroke"
         d="m 92.75093,145.69456 c 3.363656,2.6e-4 8.90999,0 8.90999,0"
         id="path8861" /><path
         sodipodi:type="star"
         style="fill:#808080;fill-opacity:1;stroke:#808080;stroke-width:1;stroke-linecap:round;stroke-linejoin:round;stroke-dasharray:none;stroke-opacity:1;paint-order:fill markers stroke"
         id="path8863"
         inkscape:flatsided="false"
         sodipodi:sides="3"
         sodipodi:cx="104.87672"
         sodipodi:cy="148.81708"
         sodipodi:r1="2.7684898"
         sodipodi:r2="1.3842453"
         sodipodi:arg1="-1.5707963"
         sodipodi:arg2="-0.52359878"
         inkscape:rounded="0"
         inkscape:randomized="0"
         d="m 104.87672,146.04859 1.19879,2.07636 1.19879,2.07637 -2.39758,0 -2.39759,0 1.1988,-2.07636 z"
         inkscape:transform-center-x="-0.69212255"
         inkscape:transform-center-y="-1.2494422e-06"
         transform="rotate(90,105.73758,146.55548)" /></g></g><g
     inkscape:label="objects"
     inkscape:groupmode="layer"
     id="layer1"
     style="display:inline"><path
       style="display:inline;fill:#808080;fill-opacity:1;stroke:none;stroke-width:0.274689;stroke-dasharray:none;stroke-opacity:1"
       d="m 12.652883,65.767087 c 0,-0.240071 0.01177,-0.458459 0.02616,-0.48529 0.02407,-0.0449 -0.0072,-0.04808 -0.39099,-0.0393 l -0.417153,0.0099 8.31e-4,-0.06741 c 4.64e-4,-0.03711 -0.008,-1.543958 -0.01888,-3.34857 l -0.01972,-3.281121 h 0.417118 0.417116 l -0.0065,-0.880087 -0.0065,-0.880097 0.433809,0.0033 0.43381,0.0033 0.0034,-0.550467 c 0.0019,-0.302767 0.0016,-0.561029 -5.75e-4,-0.573917 -0.0022,-0.01284 0.120969,-0.02086 0.273708,-0.01779 0.159431,0.0033 0.290394,-0.0077 0.307492,-0.02415 0.01808,-0.01811 0.02925,-0.215907 0.02841,-0.503667 -8.43e-4,-0.297464 0.0081,-0.452311 0.02423,-0.41594 0.02141,0.04841 0.02593,0.04984 0.02763,0.0077 0.0019,-0.04589 0.07169,-0.04973 0.905411,-0.04995 0.646742,-8.8e-5 0.916291,0.0099 0.948845,0.03392 0.03798,0.02843 0.03951,0.02734 0.0092,-0.0066 -0.02496,-0.02799 -0.03622,-0.155747 -0.03622,-0.41145 v -0.370843 h 1.535535 1.535535 l -1.3e-5,0.369394 -1.4e-5,0.369393 0.972011,-0.0077 0.972013,-0.0077 -0.0087,0.442596 -0.0087,0.442585 0.414525,-0.0055 0.414526,-0.0055 -0.0089,0.338226 -0.0089,0.338237 0.586692,-0.0066 0.586688,-0.0066 v 1.302933 1.302921 h 0.420102 0.4201 v 3.27146 c 0,2.590068 -0.0076,3.274512 -0.03622,3.286072 -0.02897,0.01175 -0.02897,0.01504 0,0.01691 0.0199,0.0011 0.03622,0.01493 0.03622,0.03041 0,0.01713 -0.181478,0.02712 -0.464869,0.02547 -0.255678,-0.0011 -0.470111,0.0022 -0.476515,0.0088 -0.0064,0.0066 -0.01394,0.144879 -0.01674,0.307729 -0.0034,0.196948 -0.01604,0.296224 -0.03774,0.29652 -0.01796,2.42e-4 -0.01309,0.01317 0.01087,0.02876 0.02867,0.01866 -0.276944,0.02591 -0.898145,0.0213 l -0.9416,-0.0066 -0.01586,-0.362148 c -0.0087,-0.199188 -0.0185,-0.345856 -0.02174,-0.325941 -0.0044,0.02723 -0.12047,0.03623 -0.466616,0.03623 h -0.46074 l -0.004,-0.397113 c -0.0022,-0.21841 -0.0093,-0.40247 -0.01586,-0.409002 -0.0066,-0.0066 -0.155306,-0.01361 -0.330592,-0.0157 -0.201298,-0.0022 -0.308559,0.0066 -0.291164,0.0236 0.01515,0.01515 0.02754,0.200922 0.02754,0.412856 v 0.385334 h -0.434746 -0.434586 l -0.0036,0.282479 c -0.0021,0.155363 -0.0053,0.321594 -0.0072,0.369393 l -0.0036,0.08695 -0.790522,0.0055 c -0.434787,0.0033 -0.810399,-0.0022 -0.834694,-0.01098 -0.03663,-0.01405 -0.04263,-0.07081 -0.03518,-0.331947 l 0.009,-0.314985 -0.543231,6.6e-5 -0.543233,5.4e-5 v -0.347579 -0.347668 h -0.275193 -0.275236 v 0.347668 c 0,0.191217 -0.0098,0.34613 -0.02173,0.344242 -0.01196,-0.0022 -0.171661,-0.0022 -0.354911,-6.6e-5 l -0.333182,0.0033 0.009,0.347722 0.0089,0.347733 h -0.957801 -0.957792 z m 4.36853,-5.466632 0.0082,-0.325942 h 0.343099 c 0.188703,0 0.383606,-0.0077 0.433116,-0.018 l 0.09002,-0.018 0.0078,-1.459591 c 0.0077,-1.442246 0.007,-1.459613 -0.05018,-1.461765 -0.03187,-0.0011 -0.262532,-3.18e-4 -0.512585,0.0022 l -0.45464,0.0044 -0.01878,-0.100121 c -0.01032,-0.055 -0.01434,-0.184675 -0.0089,-0.288056 0.0066,-0.124503 -0.0024,-0.199363 -0.02636,-0.221682 -0.02276,-0.02119 -0.03622,-0.02251 -0.03622,-0.0033 0,0.02009 -0.249104,0.03008 -0.746039,0.03008 l -0.746038,-3.3e-5 v 0.282523 0.282523 l -0.463558,0.0066 -0.463557,0.0066 -0.0075,1.462478 -0.0075,1.462489 0.09442,0.01757 c 0.05194,0.0099 0.293268,0.0135 0.536298,0.0088 l 0.441871,-0.0088 0.0034,0.260742 c 0.0019,0.143419 10e-4,0.278396 -0.0021,0.299957 -0.01653,0.120353 -0.0089,0.12144 0.801778,0.113382 l 0.775738,-0.0077 z m 4.757762,0.0077 c 0,-0.246372 0.0094,-0.333593 0.03622,-0.334779 0.0199,-8.78e-4 0.187803,-2.3e-4 0.373079,0.0011 0.185274,0.0011 0.371176,-0.0055 0.41312,-0.01614 l 0.07625,-0.0191 -0.0075,-1.463104 -0.0075,-1.463093 -0.507018,-0.0044 -0.507017,-0.0044 -0.0082,-0.281546 -0.0082,-0.281546 -0.755084,-0.0077 c -0.415294,-0.0044 -0.767815,-2.96e-4 -0.783378,0.0088 -0.01623,0.0099 -0.02428,0.13042 -0.01889,0.282237 0.0076,0.212801 10e-4,0.2679 -0.03334,0.28103 -0.02351,0.0088 -0.235843,0.01361 -0.471847,0.0099 l -0.429098,-0.0055 0.0015,1.458932 c 0.0012,1.122199 0.0098,1.464443 0.03726,1.482864 0.01963,0.01317 0.257339,0.02097 0.528231,0.01746 l 0.49253,-0.0066 0.0081,0.338896 0.0081,0.338896 h 0.781334 0.781335 v -0.333188 z"
       id="path307"
       sodipodi:nodetypes="csscccccccccccscsccccssscccccccccccccccccccsscscsccsccscscccscscccccccsscccccccsccccccccccsscsccccscscccccccccscccccccscccccccccscsccccscccccccc" /><path
       style="fill:#808080;fill-opacity:1;stroke:none;stroke-width:0.456973;stroke-dasharray:none;stroke-opacity:1"
       d="m 100.58732,16.385082 c 0,-0.535639 -0.26783,-0.803463 -0.803463,-0.803463 -0.763784,0 -0.80347,-0.26782 -0.80347,-5.423371 0,-5.1555495 0.03963,-5.4233705 0.80347,-5.4233705 0.535633,0 0.803463,-0.267821 0.803463,-0.803461 0,-0.768904 0.26782,-0.803462 6.22682,-0.803462 5.95901,0 6.22685,0.03455 6.22685,0.803462 0,0.446368 0.26781,0.803461 0.60259,0.803461 0.4553,0 0.6026,0.491005 0.6026,2.008656 v 2.0086568 h -2.61126 -2.61125 v -1.40606 -1.4060598 h -2.20953 -2.20951 v 4.2181775 4.218176 h 2.20951 2.20953 v -1.406058 -1.406058 h 2.61125 2.61126 v 2.008657 c 0,1.517649 -0.1473,2.008654 -0.6026,2.008654 -0.33478,0 -0.60259,0.357092 -0.60259,0.803463 0,0.768906 -0.26784,0.803464 -6.22685,0.803464 -5.959,0 -6.22682,-0.03455 -6.22682,-0.803464 z"
       id="path7765"
       inkscape:label="c" /><rect
       style="fill:#808080;fill-opacity:1;stroke:none;stroke-width:0.274689;stroke-linecap:round;stroke-linejoin:round;stroke-dasharray:none;stroke-dashoffset:0;stroke-opacity:1;paint-order:fill markers stroke"
       id="rect9658"
       width="1.2152878"
       height="1.9411482"
       x="16.304968"
       y="57.627747" /><rect
       style="fill:#808080;fill-opacity:1;stroke:none;stroke-width:0.274689;stroke-linecap:round;stroke-linejoin:round;stroke-dasharray:none;stroke-dashoffset:0;stroke-opacity:1;paint-order:fill markers stroke"
       id="rect9660"
       width="1.2458115"
       height="1.9411482"
       x="21.054863"
       y="57.627747" /><rect
       style="opacity:1;fill:#808080;fill-opacity:1;stroke:#7f7f7f;stroke-width:0.671579;stroke-linecap:round;stroke-linejoin:round;stroke-dasharray:2.68632, 1.34316, 0.671579, 1.34316;stroke-dashoffset:0;stroke-opacity:1;paint-order:fill markers stroke"
       id="rect1810"
       width="9.5873175"
       height="9.5873175"
       x="79.505058"
       y="21.65906"
       ry="2.6226861" /><rect
       style="opacity:1;fill:#808080;fill-opacity:1;stroke:#7f7f7f;stroke-width:0.671579;stroke-linecap:round;stroke-linejoin:round;stroke-dasharray:2.68632, 1.34316, 0.671579, 1.34316;stroke-dashoffset:0;stroke-opacity:1;paint-order:fill markers stroke"
       id="rect1864"
       width="9.5873175"
       height="9.5873175"
       x="100.78016"
       y="21.65906"
       ry="2.6226861" /><rect
       style="opacity:1;fill:#808080;fill-opacity:1;stroke:#7f7f7f;stroke-width:0.671579;stroke-linecap:round;stroke-linejoin:round;stroke-dasharray:2.68632, 1.34316, 0.671579, 1.34316;stroke-dashoffset:0;stroke-opacity:1;paint-order:fill markers stroke"
       id="rect1866"
       width="9.5873175"
       height="9.5873175"
       x="122.03716"
       y="21.65906"
       ry="2.6226861" /><rect
       style="opacity:1;fill:#808080;fill-opacity:1;stroke:#7f7f7f;stroke-width:0.665825;stroke-linecap:round;stroke-linejoin:round;stroke-dasharray:2.6633, 1.33165, 0.665825, 1.33165;stroke-dashoffset:0;stroke-opacity:1;paint-order:fill markers stroke"
       id="rect317"
       width="9.5051632"
       height="9.5051632"
       x="42.238335"
       y="57.560936"
       ry="2.6002121" /><rect
       style="opacity:1;fill:#808080;fill-opacity:1;stroke:#7f7f7f;stroke-width:0.665825;stroke-linecap:round;stroke-linejoin:round;stroke-dasharray:2.6633, 1.33165, 0.665825, 1.33165;stroke-dashoffset:0;stroke-opacity:1;paint-order:fill markers stroke"
       id="rect319"
       width="9.5051632"
       height="9.5051632"
       x="52.409313"
       y="57.560936"
       ry="2.6002121" /><rect
       style="opacity:1;fill:#808080;fill-opacity:1;stroke:#7f7f7f;stroke-width:0.665825;stroke-linecap:round;stroke-linejoin:round;stroke-dasharray:2.6633, 1.33165, 0.665825, 1.33165;stroke-dashoffset:0;stroke-opacity:1;paint-order:fill markers stroke"
       id="rect321"
       width="9.5051632"
       height="9.5051632"
       x="62.580303"
       y="57.560936"
       ry="2.6002121" /><rect
       style="opacity:1;fill:#808080;fill-opacity:1;stroke:#7f7f7f;stroke-width:0.665825;stroke-linecap:round;stroke-linejoin:round;stroke-dasharray:2.6633, 1.33165, 0.665825, 1.33165;stroke-dashoffset:0;stroke-opacity:1;paint-order:fill markers stroke"
       id="rect323"
       width="9.5051632"
       height="9.5051632"
       x="52.409313"
       y="46.831818"
       ry="2.6002121" /><rect
       style="opacity:1;fill:#808080;fill-opacity:1;stroke:#7f7f7f;stroke-width:0.665825;stroke-linecap:round;stroke-linejoin:round;stroke-dasharray:2.6633, 1.33165, 0.665825, 1.33165;stroke-dashoffset:0;stroke-opacity:1;paint-order:fill markers stroke"
       id="rect325"
       width="9.5051632"
       height="9.5051632"
       x="62.580303"
       y="46.831818"
       ry="2.6002121" /><rect
       style="opacity:1;fill:#808080;fill-opacity:1;stroke:#7f7f7f;stroke-width:0.665825;stroke-linecap:round;stroke-linejoin:round;stroke-dasharray:2.6633, 1.33165, 0.665825, 1.33165;stroke-dashoffset:0;stroke-opacity:1;paint-order:fill markers stroke"
       id="rect327"
       width="9.5051632"
       height="9.5051632"
       x="42.238335"
       y="46.831818"
       ry="2.6002121" /><rect
       style="opacity:1;fill:#808080;fill-opacity:1;stroke:#7f7f7f;stroke-width:0.665825;stroke-linecap:round;stroke-linejoin:round;stroke-dasharray:2.6633, 1.33165, 0.665825, 1.33165;stroke-dashoffset:0;stroke-opacity:1;paint-order:fill markers stroke"
       id="rect329"
       width="9.5051632"
       height="9.5051632"
       x="32.067345"
       y="57.560936"
       ry="2.6002121" /><rect
       style="opacity:1;fill:#808080;fill-opacity:1;stroke:#7f7f7f;stroke-width:0.665825;stroke-linecap:round;stroke-linejoin:round;stroke-dasharray:2.6633, 1.33165, 0.665825, 1.33165;stroke-dashoffset:0;stroke-opacity:1;paint-order:fill markers stroke"
       id="rect331"
       width="9.5051632"
       height="9.5051632"
       x="72.751274"
       y="57.560936"
       ry="2.6002121" /><rect
       style="opacity:1;fill:#808080;fill-opacity:1;stroke:#7f7f7f;stroke-width:0.665825;stroke-linecap:round;stroke-linejoin:round;stroke-dasharray:2.6633, 1.33165, 0.665825, 1.33165;stroke-dashoffset:0;stroke-opacity:1;paint-order:fill markers stroke"
       id="rect333"
       width="9.5051632"
       height="9.5051632"
       x="52.409313"
       y="36.102692"
       ry="2.6002121" /><path
       style="display:inline;fill:#808080;fill-opacity:1;stroke:none;stroke-width:0.274689;stroke-dasharray:none;stroke-opacity:1"
       d="m 96.598023,65.767087 c 0,-0.240071 0.01177,-0.458459 0.02616,-0.48529 0.02407,-0.0449 -0.0072,-0.04808 -0.390989,-0.0393 l -0.417153,0.0099 8.31e-4,-0.06741 c 4.63e-4,-0.03711 -0.008,-1.543958 -0.01888,-3.34857 l -0.01972,-3.281121 h 0.417117 0.417117 l -0.0065,-0.880087 -0.0065,-0.880097 0.433808,0.0033 0.43381,0.0033 0.0034,-0.550467 c 0.0019,-0.302767 0.0016,-0.561029 -5.75e-4,-0.573917 -0.0022,-0.01284 0.12097,-0.02086 0.273709,-0.01779 0.15943,0.0033 0.290394,-0.0077 0.307493,-0.02415 0.01808,-0.01811 0.02925,-0.215907 0.02841,-0.503667 -8.42e-4,-0.297464 0.0081,-0.452311 0.02423,-0.41594 0.02141,0.04841 0.02593,0.04984 0.02763,0.0077 0.0019,-0.04589 0.07169,-0.04973 0.905411,-0.04995 0.646741,-8.8e-5 0.91629,0.0099 0.948845,0.03392 0.03798,0.02843 0.03951,0.02734 0.0092,-0.0066 -0.02496,-0.02799 -0.03622,-0.155747 -0.03622,-0.41145 v -0.370843 h 1.535533 1.53553 l -1e-5,0.369394 -10e-6,0.369393 0.97201,-0.0077 0.97201,-0.0077 -0.009,0.442596 -0.009,0.442585 0.41452,-0.0055 0.41453,-0.0055 -0.009,0.338226 -0.009,0.338237 0.5867,-0.0066 0.58668,-0.0066 v 1.302933 1.302921 h 0.4201 0.4201 v 3.27146 c 0,2.590068 -0.008,3.274512 -0.0362,3.286072 -0.029,0.01175 -0.029,0.01504 0,0.01691 0.0199,0.0011 0.0362,0.01493 0.0362,0.03041 0,0.01713 -0.18148,0.02712 -0.46487,0.02547 -0.25568,-0.0011 -0.4701,0.0022 -0.47651,0.0088 -0.007,0.0066 -0.014,0.144879 -0.0167,0.307729 -0.003,0.196948 -0.016,0.296224 -0.0378,0.29652 -0.018,2.42e-4 -0.0131,0.01317 0.011,0.02876 0.0287,0.01866 -0.27693,0.02591 -0.89814,0.0213 l -0.9416,-0.0066 -0.0159,-0.362148 c -0.009,-0.199188 -0.0185,-0.345856 -0.0217,-0.325941 -0.004,0.02723 -0.12047,0.03623 -0.46661,0.03623 h -0.46074 l -0.004,-0.397113 c -0.002,-0.21841 -0.009,-0.40247 -0.0159,-0.409002 -0.007,-0.0066 -0.1553,-0.01361 -0.33059,-0.0157 -0.2013,-0.0022 -0.30856,0.0066 -0.29116,0.0236 0.0152,0.01515 0.0275,0.200922 0.0275,0.412856 v 0.385334 h -0.43475 -0.43458 l -0.004,0.282479 c -0.002,0.155363 -0.005,0.321594 -0.007,0.369393 l -0.004,0.08695 -0.79053,0.0055 c -0.43478,0.0033 -0.8104,-0.0022 -0.83469,-0.01098 -0.0366,-0.01405 -0.0426,-0.07081 -0.0352,-0.331947 l 0.009,-0.314985 -0.54323,6.6e-5 -0.543235,5.4e-5 V 65.159171 64.811503 H 99.48084 99.205603 v 0.347668 c 0,0.191217 -0.0098,0.34613 -0.02173,0.344242 -0.01196,-0.0022 -0.171661,-0.0022 -0.354911,-6.6e-5 l -0.333181,0.0033 0.009,0.347722 0.0089,0.347733 h -0.957802 -0.957791 z m 4.368527,-5.466632 0.008,-0.325942 h 0.3431 c 0.1887,0 0.3836,-0.0077 0.43311,-0.018 l 0.09,-0.018 0.008,-1.459591 c 0.008,-1.442246 0.007,-1.459613 -0.0502,-1.461765 -0.0319,-0.0011 -0.26254,-3.18e-4 -0.51259,0.0022 l -0.45464,0.0044 -0.0188,-0.100121 c -0.0103,-0.055 -0.0143,-0.184675 -0.009,-0.288056 0.007,-0.124503 -0.002,-0.199363 -0.0264,-0.221682 -0.0228,-0.02119 -0.0362,-0.02251 -0.0362,-0.0033 0,0.02009 -0.2491,0.03008 -0.746038,0.03008 l -0.746038,-3.3e-5 v 0.282523 0.282523 l -0.463558,0.0066 -0.463558,0.0066 -0.0075,1.462478 -0.0075,1.462489 0.09442,0.01757 c 0.05194,0.0099 0.293268,0.0135 0.536298,0.0088 l 0.441871,-0.0088 0.0034,0.260742 c 0.0019,0.143419 10e-4,0.278396 -0.0021,0.299957 -0.01653,0.120353 -0.0089,0.12144 0.801783,0.113382 l 0.77573,-0.0077 z m 4.75777,0.0077 c 0,-0.246372 0.009,-0.333593 0.0362,-0.334779 0.0199,-8.78e-4 0.18781,-2.3e-4 0.37308,0.0011 0.18527,0.0011 0.37118,-0.0055 0.41312,-0.01614 l 0.0763,-0.0191 -0.008,-1.463104 -0.008,-1.463093 -0.50701,-0.0044 -0.50702,-0.0044 -0.008,-0.281546 -0.008,-0.281546 -0.75508,-0.0077 c -0.4153,-0.0044 -0.76782,-2.96e-4 -0.78338,0.0088 -0.0162,0.0099 -0.0243,0.13042 -0.0189,0.282237 0.008,0.212801 10e-4,0.2679 -0.0333,0.28103 -0.0235,0.0088 -0.23584,0.01361 -0.47184,0.0099 l -0.4291,-0.0055 0.002,1.458932 c 0.001,1.122199 0.01,1.464443 0.0373,1.482864 0.0196,0.01317 0.25734,0.02097 0.52824,0.01746 l 0.49253,-0.0066 0.008,0.338896 0.008,0.338896 h 0.78134 0.78133 v -0.333188 z"
       id="path335"
       sodipodi:nodetypes="csscccccccccccscsccccssscccccccccccccccccccsscscsccsccscscccscscccccccsscccccccsccccccccccsscsccccscscccccccccscccccccscccccccccscsccccscccccccc" /><rect
       style="fill:#808080;fill-opacity:1;stroke:none;stroke-width:0.274689;stroke-linecap:round;stroke-linejoin:round;stroke-dasharray:none;stroke-dashoffset:0;stroke-opacity:1;paint-order:fill markers stroke"
       id="rect337"
       width="1.2152878"
       height="1.9411482"
       x="100.25011"
       y="57.627747" /><rect
       style="fill:#808080;fill-opacity:1;stroke:none;stroke-width:0.274689;stroke-linecap:round;stroke-linejoin:round;stroke-dasharray:none;stroke-dashoffset:0;stroke-opacity:1;paint-order:fill markers stroke"
       id="rect339"
       width="1.2458115"
       height="1.9411482"
       x="105"
       y="57.627747" /><rect
       style="opacity:1;fill:#808080;fill-opacity:1;stroke:#7f7f7f;stroke-width:0.671579;stroke-linecap:round;stroke-linejoin:round;stroke-dasharray:2.68632, 1.34316, 0.671579, 1.34316;stroke-dashoffset:0;stroke-opacity:1;paint-order:fill markers stroke"
       id="rect1141"
       width="9.5873175"
       height="9.5873175"
       x="5.2620907"
       y="66.948936"
       ry="2.6226861" /><rect
       style="opacity:1;fill:#808080;fill-opacity:1;stroke:#7f7f7f;stroke-width:0.671579;stroke-linecap:round;stroke-linejoin:round;stroke-dasharray:2.68632, 1.34316, 0.671579, 1.34316;stroke-dashoffset:0;stroke-opacity:1;paint-order:fill markers stroke"
       id="rect1143"
       width="9.5873175"
       height="9.5873175"
       x="15.811452"
       y="66.948936"
       ry="2.6226861" /><rect
       style="opacity:1;fill:#808080;fill-opacity:1;stroke:#7f7f7f;stroke-width:0.671579;stroke-linecap:round;stroke-linejoin:round;stroke-dasharray:2.68632, 1.34316, 0.671579, 1.34316;stroke-dashoffset:0;stroke-opacity:1;paint-order:fill markers stroke"
       id="rect1145"
       width="9.5873175"
       height="9.5873175"
       x="26.360811"
       y="66.948936"
       ry="2.6226861" /><rect
       style="opacity:1;fill:#808080;fill-opacity:1;stroke:#7f7f7f;stroke-width:0.671579;stroke-linecap:round;stroke-linejoin:round;stroke-dasharray:2.68632, 1.34316, 0.671579, 1.34316;stroke-dashoffset:0;stroke-opacity:1;paint-order:fill markers stroke"
       id="rect1157"
       width="9.5873175"
       height="9.5873175"
       x="195.15059"
       y="66.948936"
       ry="2.6226861" /><rect
       style="opacity:1;fill:#808080;fill-opacity:1;stroke:#7f7f7f;stroke-width:0.671579;stroke-linecap:round;stroke-linejoin:round;stroke-dasharray:2.68632, 1.34316, 0.671579, 1.34316;stroke-dashoffset:0;stroke-opacity:1;paint-order:fill markers stroke"
       id="rect1159"
       width="9.5873175"
       height="9.5873175"
       x="184.60123"
       y="66.948936"
       ry="2.6226861" /><rect
       style="opacity:1;fill:#808080;fill-opacity:1;stroke:#7f7f7f;stroke-width:0.671579;stroke-linecap:round;stroke-linejoin:round;stroke-dasharray:2.68632, 1.34316, 0.671579, 1.34316;stroke-dashoffset:0;stroke-opacity:1;paint-order:fill markers stroke"
       id="rect1161"
       width="9.5873175"
       height="9.5873175"
       x="174.05186"
       y="66.948936"
       ry="2.6226861" /><rect
       style="opacity:1;fill:#808080;fill-opacity:1;stroke:#7f7f7f;stroke-width:0.671579;stroke-linecap:round;stroke-linejoin:round;stroke-dasharray:2.68632, 1.34316, 0.671579, 1.34316;stroke-dashoffset:0;stroke-opacity:1;paint-order:fill markers stroke"
       id="rect1163"
       width="9.5873175"
       height="9.5873175"
       x="163.5025"
       y="66.948936"
       ry="2.6226861" /><rect
       style="opacity:1;fill:#808080;fill-opacity:1;stroke:#7f7f7f;stroke-width:0.671579;stroke-linecap:round;stroke-linejoin:round;stroke-dasharray:2.68632, 1.34316, 0.671579, 1.34316;stroke-dashoffset:0;stroke-opacity:1;paint-order:fill markers stroke"
       id="rect1165"
       width="9.5873175"
       height="9.5873175"
       x="152.95316"
       y="66.948936"
       ry="2.6226861" /><rect
       style="opacity:1;fill:#808080;fill-opacity:1;stroke:#7f7f7f;stroke-width:0.671579;stroke-linecap:round;stroke-linejoin:round;stroke-dasharray:2.68632, 1.34316, 0.671579, 1.34316;stroke-dashoffset:0;stroke-opacity:1;paint-order:fill markers stroke"
       id="rect1167"
       width="9.5873175"
       height="9.5873175"
       x="142.40379"
       y="66.948936"
       ry="2.6226861" /><rect
       style="opacity:1;fill:#808080;fill-opacity:1;stroke:#7f7f7f;stroke-width:0.671579;stroke-linecap:round;stroke-linejoin:round;stroke-dasharray:2.68632, 1.34316, 0.671579, 1.34316;stroke-dashoffset:0;stroke-opacity:1;paint-order:fill markers stroke"
       id="rect1169"
       width="9.5873175"
       height="9.5873175"
       x="131.85443"
       y="66.948936"
       ry="2.6226861" /><rect
       style="opacity:1;fill:#808080;fill-opacity:1;stroke:#7f7f7f;stroke-width:0.671579;stroke-linecap:round;stroke-linejoin:round;stroke-dasharray:2.68632, 1.34316, 0.671579, 1.34316;stroke-dashoffset:0;stroke-opacity:1;paint-order:fill markers stroke"
       id="rect1171"
       width="9.5873175"
       height="9.5873175"
       x="121.30506"
       y="66.948936"
       ry="2.6226861" /><rect
       style="opacity:1;fill:#808080;fill-opacity:1;stroke:#7f7f7f;stroke-width:0.671579;stroke-linecap:round;stroke-linejoin:round;stroke-dasharray:2.68632, 1.34316, 0.671579, 1.34316;stroke-dashoffset:0;stroke-opacity:1;paint-order:fill markers stroke"
       id="rect1173"
       width="9.5873175"
       height="9.5873175"
       x="110.7557"
       y="66.948936"
       ry="2.6226861" /><rect
       style="opacity:1;fill:#808080;fill-opacity:1;stroke:#7f7f7f;stroke-width:0.671579;stroke-linecap:round;stroke-linejoin:round;stroke-dasharray:2.68632, 1.34316, 0.671579, 1.34316;stroke-dashoffset:0;stroke-opacity:1;paint-order:fill markers stroke"
       id="rect1175"
       width="9.5873175"
       height="9.5873175"
       x="100.20634"
       y="66.948936"
       ry="2.6226861" /><rect
       style="opacity:1;fill:#808080;fill-opacity:1;stroke:#7f7f7f;stroke-width:0.671579;stroke-linecap:round;stroke-linejoin:round;stroke-dasharray:2.68632, 1.34316, 0.671579, 1.34316;stroke-dashoffset:0;stroke-opacity:1;paint-order:fill markers stroke"
       id="rect1177"
       width="9.5873175"
       height="9.5873175"
       x="89.656982"
       y="66.948936"
       ry="2.6226861" /><rect
       style="opacity:1;fill:#808080;fill-opacity:1;stroke:#7f7f7f;stroke-width:0.671579;stroke-linecap:round;stroke-linejoin:round;stroke-dasharray:2.68632, 1.34316, 0.671579, 1.34316;stroke-dashoffset:0;stroke-opacity:1;paint-order:fill markers stroke"
       id="rect1179"
       width="9.5873175"
       height="9.5873175"
       x="79.10762"
       y="66.948936"
       ry="2.6226861" /><rect
       style="opacity:1;fill:#808080;fill-opacity:1;stroke:#7f7f7f;stroke-width:0.671579;stroke-linecap:round;stroke-linejoin:round;stroke-dasharray:2.68632, 1.34316, 0.671579, 1.34316;stroke-dashoffset:0;stroke-opacity:1;paint-order:fill markers stroke"
       id="rect1181"
       width="9.5873175"
       height="9.5873175"
       x="68.558258"
       y="66.948936"
       ry="2.6226861" /><rect
       style="opacity:1;fill:#808080;fill-opacity:1;stroke:#7f7f7f;stroke-width:0.671579;stroke-linecap:round;stroke-linejoin:round;stroke-dasharray:2.68632, 1.34316, 0.671579, 1.34316;stroke-dashoffset:0;stroke-opacity:1;paint-order:fill markers stroke"
       id="rect1183"
       width="9.5873175"
       height="9.5873175"
       x="58.008896"
       y="66.948936"
       ry="2.6226861" /><rect
       style="opacity:1;fill:#808080;fill-opacity:1;stroke:#7f7f7f;stroke-width:0.671579;stroke-linecap:round;stroke-linejoin:round;stroke-dasharray:2.68632, 1.34316, 0.671579, 1.34316;stroke-dashoffset:0;stroke-opacity:1;paint-order:fill markers stroke"
       id="rect1185"
       width="9.5873175"
       height="9.5873175"
       x="47.459534"
       y="66.948936"
       ry="2.6226861" /><rect
       style="opacity:1;fill:#808080;fill-opacity:1;stroke:#7f7f7f;stroke-width:0.671579;stroke-linecap:round;stroke-linejoin:round;stroke-dasharray:2.68632, 1.34316, 0.671579, 1.34316;stroke-dashoffset:0;stroke-opacity:1;paint-order:fill markers stroke"
       id="rect1187"
       width="9.5873175"
       height="9.5873175"
       x="36.910175"
       y="66.948936"
       ry="2.6226861" /><path
       style="opacity:1;fill:#808080;fill-opacity:1;stroke:#7f7f7f;stroke-width:0.732242;stroke-linecap:round;stroke-linejoin:round;stroke-dasharray:2.92899, 1.46449, 0.732242, 1.46449;stroke-dashoffset:0;stroke-opacity:1;paint-order:fill markers stroke"
       d="M 178.4794,66.94894 V 45.574645"
       id="path1285" /><rect
       style="opacity:1;fill:#808080;fill-opacity:1;stroke:#7f7f7f;stroke-width:0.430744;stroke-linecap:round;stroke-linejoin:round;stroke-dasharray:1.72298, 0.861486, 0.430744, 0.861486;stroke-dashoffset:0;stroke-opacity:1;paint-order:fill markers stroke"
       id="rect1287"
       width="6.1492028"
       height="6.1492028"
       x="159.72598"
       y="40.425426"
       ry="1.6821626" /><rect
       style="opacity:1;fill:#808080;fill-opacity:1;stroke:#7f7f7f;stroke-width:0.430744;stroke-linecap:round;stroke-linejoin:round;stroke-dasharray:1.72298, 0.861486, 0.430744, 0.861486;stroke-dashoffset:0;stroke-opacity:1;paint-order:fill markers stroke"
       id="rect1289"
       width="6.1492028"
       height="6.1492028"
       x="164.46664"
       y="30.006922"
       ry="1.6821626" /><rect
       style="opacity:1;fill:#808080;fill-opacity:1;stroke:#7f7f7f;stroke-width:0.430744;stroke-linecap:round;stroke-linejoin:round;stroke-dasharray:1.72298, 0.861486, 0.430744, 0.861486;stroke-dashoffset:0;stroke-opacity:1;paint-order:fill markers stroke"
       id="rect1291"
       width="6.1492028"
       height="6.1492028"
       x="175.4048"
       y="24.62068"
       ry="1.6821626" /><rect
       style="opacity:1;fill:#808080;fill-opacity:1;stroke:#7f7f7f;stroke-width:0.430744;stroke-linecap:round;stroke-linejoin:round;stroke-dasharray:1.72298, 0.861486, 0.430744, 0.861486;stroke-dashoffset:0;stroke-opacity:1;paint-order:fill markers stroke"
       id="rect1293"
       width="6.1492028"
       height="6.1492028"
       x="186.34297"
       y="30.006922"
       ry="1.6821626" /><rect
       style="opacity:1;fill:#808080;fill-opacity:1;stroke:#7f7f7f;stroke-width:0.430744;stroke-linecap:round;stroke-linejoin:round;stroke-dasharray:1.72298, 0.861486, 0.430744, 0.861486;stroke-dashoffset:0;stroke-opacity:1;paint-order:fill markers stroke"
       id="rect1295"
       width="6.1492028"
       height="6.1492028"
       x="189.63293"
       y="40.425426"
       ry="1.6821626" /><rect
       style="opacity:1;fill:#808080;fill-opacity:1;stroke:#7f7f7f;stroke-width:0.430744;stroke-linecap:round;stroke-linejoin:round;stroke-dasharray:1.72298, 0.861486, 0.430744, 0.861486;stroke-dashoffset:0;stroke-opacity:1;paint-order:fill markers stroke"
       id="rect1297"
       width="6.1492028"
       height="6.1492028"
       x="186.34297"
       y="51.366402"
       ry="1.6821626" /><rect
       style="opacity:1;fill:#808080;fill-opacity:1;stroke:#7f7f7f;stroke-width:0.430744;stroke-linecap:round;stroke-linejoin:round;stroke-dasharray:1.72298, 0.861486, 0.430744, 0.861486;stroke-dashoffset:0;stroke-opacity:1;paint-order:fill markers stroke"
       id="rect1299"
       width="6.1492028"
       height="6.1492028"
       x="164.46664"
       y="50.843925"
       ry="1.6821626" /><path
       style="opacity:1;fill:#808080;fill-opacity:1;stroke:#7f7f7f;stroke-width:0.732242;stroke-linecap:round;stroke-linejoin:round;stroke-dasharray:2.92899, 1.46449, 0.732242, 1.46449;stroke-dashoffset:0;stroke-opacity:1;paint-order:fill markers stroke"
       d="m 170.57972,52.176313 7.89968,-6.601668"
       id="path1301" /><path
       style="opacity:1;fill:#808080;fill-opacity:1;stroke:#7f7f7f;stroke-width:0.732242;stroke-linecap:round;stroke-linejoin:round;stroke-dasharray:2.92899, 1.46449, 0.732242, 1.46449;stroke-dashoffset:0;stroke-opacity:1;paint-order:fill markers stroke"
       d="M 186.34296,51.3664 178.4794,45.574645"
       id="path1303" /><path
       style="opacity:1;fill:#808080;fill-opacity:1;stroke:#7f7f7f;stroke-width:0.732242;stroke-linecap:round;stroke-linejoin:round;stroke-dasharray:2.92899, 1.46449, 0.732242, 1.46449;stroke-dashoffset:0;stroke-opacity:1;paint-order:fill markers stroke"
       d="M 189.63292,43.500024 178.4794,45.574645"
       id="path1307" /><path
       style="opacity:1;fill:#808080;fill-opacity:1;stroke:#7f7f7f;stroke-width:0.732242;stroke-linecap:round;stroke-linejoin:round;stroke-dasharray:2.92899, 1.46449, 0.732242, 1.46449;stroke-dashoffset:0;stroke-opacity:1;paint-order:fill markers stroke"
       d="M 186.34296,33.081522 178.4794,45.574645"
       id="path1309" /><path
       style="opacity:1;fill:#808080;fill-opacity:1;stroke:#7f7f7f;stroke-width:0.732242;stroke-linecap:round;stroke-linejoin:round;stroke-dasharray:2.92899, 1.46449, 0.732242, 1.46449;stroke-dashoffset:0;stroke-opacity:1;paint-order:fill markers stroke"
       d="M 178.4794,30.769881 V 45.574645"
       id="path1311" /><path
       style="opacity:1;fill:#808080;fill-opacity:1;stroke:#7f7f7f;stroke-width:0.732242;stroke-linecap:round;stroke-linejoin:round;stroke-dasharray:2.92899, 1.46449, 0.732242, 1.46449;stroke-dashoffset:0;stroke-opacity:1;paint-order:fill markers stroke"
       d="m 169.43035,34.351459 9.04905,11.223186"
       id="path1313" /><path
       style="opacity:1;fill:#808080;fill-opacity:1;stroke:#7f7f7f;stroke-width:0.732242;stroke-linecap:round;stroke-linejoin:round;stroke-dasharray:2.92899, 1.46449, 0.732242, 1.46449;stroke-dashoffset:0;stroke-opacity:1;paint-order:fill markers stroke"
       d="m 164.25126,43.802964 14.22814,1.771681"
       id="path1315" /><rect
       style="opacity:1;fill:#808080;fill-opacity:1;stroke:#7f7f7f;stroke-width:0.430744;stroke-linecap:round;stroke-linejoin:round;stroke-dasharray:1.72298, 0.861486, 0.430744, 0.861486;stroke-dashoffset:0;stroke-opacity:1;paint-order:fill markers stroke"
       id="rect1317"
       width="6.1492028"
       height="6.1492028"
       x="175.4048"
       y="42.280457"
       ry="1.6821626" /><path
       style="display:inline;fill:#808080;fill-opacity:1;stroke:none;stroke-width:0.274689;stroke-dasharray:none;stroke-opacity:1"
       d="m 142.1434,65.767087 c 0,-0.240071 -0.0118,-0.458459 -0.0261,-0.48529 -0.024,-0.0449 0.008,-0.04808 0.39099,-0.0393 l 0.41716,0.0099 -8.4e-4,-0.06741 c -4.6e-4,-0.03711 0.008,-1.543958 0.0189,-3.34857 l 0.0198,-3.281121 h -0.41712 -0.41711 l 0.007,-0.880087 0.007,-0.880097 -0.43381,0.0033 -0.43382,0.0033 -0.003,-0.550467 c -0.002,-0.302767 -0.002,-0.561029 5.8e-4,-0.573917 0.002,-0.01284 -0.12097,-0.02086 -0.2737,-0.01779 -0.15944,0.0033 -0.2904,-0.0077 -0.3075,-0.02415 -0.0181,-0.01811 -0.0292,-0.215907 -0.0284,-0.503667 8.5e-4,-0.297464 -0.008,-0.452311 -0.0243,-0.41594 -0.0214,0.04841 -0.0259,0.04984 -0.0277,0.0077 -0.002,-0.04589 -0.0717,-0.04973 -0.90542,-0.04995 -0.64673,-8.8e-5 -0.91628,0.0099 -0.94884,0.03392 -0.038,0.02843 -0.0395,0.02734 -0.009,-0.0066 0.0249,-0.02799 0.0362,-0.155747 0.0362,-0.41145 v -0.370843 h -1.53553 -1.53554 l 1e-5,0.369394 1e-5,0.369393 -0.972,-0.0077 -0.97202,-0.0077 0.009,0.442596 0.009,0.442585 -0.41452,-0.0055 -0.41452,-0.0055 0.009,0.338226 0.009,0.338237 -0.58669,-0.0066 -0.58669,-0.0066 v 1.302933 1.302921 h -0.4201 -0.4201 v 3.27146 c 0,2.590068 0.008,3.274512 0.0362,3.286072 0.029,0.01175 0.029,0.01504 0,0.01691 -0.0199,0.0011 -0.0362,0.01493 -0.0362,0.03041 0,0.01713 0.18148,0.02712 0.46487,0.02547 0.25568,-0.0011 0.47011,0.0022 0.47652,0.0088 0.007,0.0066 0.0139,0.144879 0.0167,0.307729 0.003,0.196948 0.016,0.296224 0.0378,0.29652 0.018,2.42e-4 0.0131,0.01317 -0.011,0.02876 -0.0286,0.01866 0.27694,0.02591 0.89815,0.0213 l 0.94159,-0.0066 0.0159,-0.362148 c 0.009,-0.199188 0.0184,-0.345856 0.0217,-0.325941 0.004,0.02723 0.12046,0.03623 0.46661,0.03623 h 0.46075 l 0.004,-0.397113 c 0.002,-0.21841 0.009,-0.40247 0.0158,-0.409002 0.007,-0.0066 0.15529,-0.01361 0.33058,-0.0157 0.2013,-0.0022 0.30857,0.0066 0.29116,0.0236 -0.0151,0.01515 -0.0275,0.200922 -0.0275,0.412856 v 0.385334 h 0.43475 0.43459 l 0.003,0.282479 c 0.002,0.155363 0.005,0.321594 0.008,0.369393 l 0.003,0.08695 0.79052,0.0055 c 0.43479,0.0033 0.81039,-0.0022 0.83469,-0.01098 0.0367,-0.01405 0.0426,-0.07081 0.0351,-0.331947 l -0.009,-0.314985 0.54323,6.6e-5 0.54323,5.4e-5 v -0.347579 -0.347668 h 0.2752 0.27523 v 0.347668 c 0,0.191217 0.01,0.34613 0.0217,0.344242 0.012,-0.0022 0.17167,-0.0022 0.35491,-6.6e-5 l 0.33318,0.0033 -0.009,0.347722 -0.009,0.347733 h 0.9578 0.95779 z m -4.36853,-5.466632 -0.008,-0.325942 h -0.3431 c -0.18871,0 -0.3836,-0.0077 -0.43312,-0.018 l -0.09,-0.018 -0.008,-1.459591 c -0.008,-1.442246 -0.007,-1.459613 0.0502,-1.461765 0.0318,-0.0011 0.26253,-3.18e-4 0.51258,0.0022 l 0.45464,0.0044 0.0188,-0.100121 c 0.01,-0.055 0.0144,-0.184675 0.009,-0.288056 -0.007,-0.124503 0.002,-0.199363 0.0264,-0.221682 0.0227,-0.02119 0.0362,-0.02251 0.0362,-0.0033 0,0.02009 0.24911,0.03008 0.74604,0.03008 l 0.74604,-3.3e-5 v 0.282523 0.282523 l 0.46356,0.0066 0.46355,0.0066 0.008,1.462478 0.008,1.462489 -0.0944,0.01757 c -0.0519,0.0099 -0.29327,0.0135 -0.53629,0.0088 l -0.44188,-0.0088 -0.003,0.260742 c -0.002,0.143419 -0.001,0.278396 0.002,0.299957 0.0166,0.120353 0.009,0.12144 -0.80178,0.113382 l -0.77574,-0.0077 z m -4.75776,0.0077 c 0,-0.246372 -0.01,-0.333593 -0.0362,-0.334779 -0.0199,-8.78e-4 -0.1878,-2.3e-4 -0.37308,0.0011 -0.18527,0.0011 -0.37117,-0.0055 -0.41312,-0.01614 l -0.0763,-0.0191 0.008,-1.463104 0.008,-1.463093 0.50702,-0.0044 0.50701,-0.0044 0.009,-0.281546 0.008,-0.281546 0.75509,-0.0077 c 0.41529,-0.0044 0.76781,-2.96e-4 0.78338,0.0088 0.0163,0.0099 0.0243,0.13042 0.0189,0.282237 -0.008,0.212801 -0.001,0.2679 0.0334,0.28103 0.0235,0.0088 0.23585,0.01361 0.47185,0.0099 l 0.4291,-0.0055 -0.001,1.458932 c -0.001,1.122199 -0.01,1.464443 -0.0372,1.482864 -0.0197,0.01317 -0.25734,0.02097 -0.52824,0.01746 l -0.49252,-0.0066 -0.008,0.338896 -0.008,0.338896 h -0.78134 -0.78134 v -0.333188 z"
       id="path1319"
       sodipodi:nodetypes="csscccccccccccscsccccssscccccccccccccccccccsscscsccsccscscccscscccccccsscccccccsccccccccccsscsccccscscccccccccscccccccscccccccccscsccccscccccccc" /><rect
       style="fill:#808080;fill-opacity:1;stroke:none;stroke-width:0.274689;stroke-linecap:round;stroke-linejoin:round;stroke-dasharray:none;stroke-dashoffset:0;stroke-opacity:1;paint-order:fill markers stroke"
       id="rect1321"
       width="1.2152878"
       height="1.9411482"
       x="-138.49132"
       y="57.627747"
       transform="scale(-1,1)" /><rect
       style="fill:#808080;fill-opacity:1;stroke:none;stroke-width:0.274689;stroke-linecap:round;stroke-linejoin:round;stroke-dasharray:none;stroke-dashoffset:0;stroke-opacity:1;paint-order:fill markers stroke"
       id="rect1323"
       width="1.2458115"
       height="1.9411482"
       x="-133.74142"
       y="57.627747"
       transform="scale(-1,1)" /></g><g
     inkscape:groupmode="layer"
     id="layer2"
     inkscape:label="text" /></svg>
